<svg width="224" height="100" viewBox="0 0 224 100" fill="none" xmlns="http://www.w3.org/2000/svg">
<path d="M110.076 55.5455H113.945L119.127 68.1932H119.332L124.514 55.5455H128.383V73H125.349V61.0085H125.187L120.363 72.9489H118.096L113.272 60.983H113.11V73H110.076V55.5455Z" fill="black"/>
<path d="M138.36 73.2557C137.081 73.2557 135.974 72.9744 135.036 72.4119C134.099 71.8494 133.371 71.0625 132.854 70.0511C132.343 69.0398 132.087 67.858 132.087 66.5057C132.087 65.1534 132.343 63.9688 132.854 62.9517C133.371 61.9347 134.099 61.1449 135.036 60.5824C135.974 60.0199 137.081 59.7386 138.36 59.7386C139.638 59.7386 140.746 60.0199 141.684 60.5824C142.621 61.1449 143.346 61.9347 143.857 62.9517C144.374 63.9688 144.633 65.1534 144.633 66.5057C144.633 67.858 144.374 69.0398 143.857 70.0511C143.346 71.0625 142.621 71.8494 141.684 72.4119C140.746 72.9744 139.638 73.2557 138.36 73.2557ZM138.377 70.7841C139.07 70.7841 139.65 70.5937 140.116 70.2131C140.581 69.8267 140.928 69.3097 141.155 68.6619C141.388 68.0142 141.505 67.2926 141.505 66.4972C141.505 65.696 141.388 64.9716 141.155 64.3239C140.928 63.6705 140.581 63.1506 140.116 62.7642C139.65 62.3778 139.07 62.1847 138.377 62.1847C137.667 62.1847 137.076 62.3778 136.604 62.7642C136.138 63.1506 135.789 63.6705 135.556 64.3239C135.329 64.9716 135.215 65.696 135.215 66.4972C135.215 67.2926 135.329 68.0142 135.556 68.6619C135.789 69.3097 136.138 69.8267 136.604 70.2131C137.076 70.5937 137.667 70.7841 138.377 70.7841Z" fill="black"/>
<path d="M154.748 59.9091V62.2955H147.223V59.9091H154.748ZM149.081 56.7727H152.166V69.0625C152.166 69.4773 152.228 69.7955 152.353 70.017C152.484 70.233 152.654 70.3807 152.865 70.4602C153.075 70.5398 153.308 70.5795 153.563 70.5795C153.757 70.5795 153.933 70.5653 154.092 70.5369C154.257 70.5085 154.382 70.483 154.467 70.4602L154.987 72.8722C154.822 72.929 154.586 72.9915 154.279 73.0597C153.978 73.1278 153.609 73.1676 153.171 73.179C152.399 73.2017 151.703 73.0852 151.083 72.8295C150.464 72.5682 149.973 72.1648 149.609 71.6193C149.251 71.0739 149.075 70.392 149.081 69.5739V56.7727Z" fill="black"/>
<path d="M163.858 73.2557C162.58 73.2557 161.472 72.9744 160.534 72.4119C159.597 71.8494 158.869 71.0625 158.352 70.0511C157.841 69.0398 157.585 67.858 157.585 66.5057C157.585 65.1534 157.841 63.9688 158.352 62.9517C158.869 61.9347 159.597 61.1449 160.534 60.5824C161.472 60.0199 162.58 59.7386 163.858 59.7386C165.136 59.7386 166.244 60.0199 167.182 60.5824C168.119 61.1449 168.844 61.9347 169.355 62.9517C169.872 63.9688 170.131 65.1534 170.131 66.5057C170.131 67.858 169.872 69.0398 169.355 70.0511C168.844 71.0625 168.119 71.8494 167.182 72.4119C166.244 72.9744 165.136 73.2557 163.858 73.2557ZM163.875 70.7841C164.568 70.7841 165.148 70.5937 165.614 70.2131C166.08 69.8267 166.426 69.3097 166.653 68.6619C166.886 68.0142 167.003 67.2926 167.003 66.4972C167.003 65.696 166.886 64.9716 166.653 64.3239C166.426 63.6705 166.08 63.1506 165.614 62.7642C165.148 62.3778 164.568 62.1847 163.875 62.1847C163.165 62.1847 162.574 62.3778 162.102 62.7642C161.636 63.1506 161.287 63.6705 161.054 64.3239C160.827 64.9716 160.713 65.696 160.713 66.4972C160.713 67.2926 160.827 68.0142 161.054 68.6619C161.287 69.3097 161.636 69.8267 162.102 70.2131C162.574 70.5937 163.165 70.7841 163.875 70.7841Z" fill="black"/>
<path d="M176.522 68.892L176.513 65.1676H177.008L181.712 59.9091H185.317L179.53 66.3523H178.891L176.522 68.892ZM173.709 73V55.5455H176.795V73H173.709ZM181.925 73L177.664 67.0426L179.743 64.8693L185.616 73H181.925Z" fill="black"/>
<path d="M191.419 55.5455V73H188.333V55.5455H191.419Z" fill="black"/>
<path d="M203.895 67.4943V59.9091H206.98V73H203.989V70.6733H203.852C203.557 71.4062 203.071 72.0057 202.395 72.4716C201.725 72.9375 200.898 73.1705 199.915 73.1705C199.057 73.1705 198.298 72.9801 197.639 72.5994C196.986 72.2131 196.475 71.6534 196.105 70.9205C195.736 70.1818 195.551 69.2898 195.551 68.2443V59.9091H198.636V67.767C198.636 68.5966 198.864 69.2557 199.318 69.7443C199.773 70.233 200.369 70.4773 201.108 70.4773C201.563 70.4773 202.003 70.3665 202.429 70.1449C202.855 69.9233 203.205 69.5938 203.477 69.1562C203.756 68.7131 203.895 68.1591 203.895 67.4943Z" fill="black"/>
<path d="M211.249 73V55.5455H214.334V62.0739H214.462C214.621 61.7557 214.846 61.4176 215.136 61.0597C215.425 60.696 215.817 60.3864 216.312 60.1307C216.806 59.8693 217.437 59.7386 218.204 59.7386C219.215 59.7386 220.127 59.9972 220.939 60.5142C221.758 61.0256 222.405 61.7841 222.883 62.7898C223.366 63.7898 223.607 65.017 223.607 66.4716C223.607 67.9091 223.371 69.1307 222.9 70.1364C222.428 71.142 221.786 71.9091 220.974 72.4375C220.161 72.9659 219.241 73.2301 218.212 73.2301C217.462 73.2301 216.84 73.1051 216.346 72.8551C215.851 72.6051 215.454 72.304 215.153 71.9517C214.857 71.5938 214.627 71.2557 214.462 70.9375H214.283V73H211.249ZM214.275 66.4545C214.275 67.3011 214.394 68.0426 214.633 68.679C214.877 69.3153 215.226 69.8125 215.681 70.1705C216.141 70.5227 216.698 70.6989 217.351 70.6989C218.033 70.6989 218.604 70.517 219.064 70.1534C219.525 69.7841 219.871 69.2813 220.104 68.6449C220.343 68.0028 220.462 67.2727 220.462 66.4545C220.462 65.642 220.346 64.9205 220.113 64.2898C219.88 63.6591 219.533 63.1648 219.073 62.8068C218.613 62.4489 218.039 62.2699 217.351 62.2699C216.692 62.2699 216.133 62.4432 215.672 62.7898C215.212 63.1364 214.863 63.6222 214.624 64.2472C214.391 64.8722 214.275 65.608 214.275 66.4545Z" fill="black"/>
<path d="M112.864 87.9653H109.677C109.586 87.4425 109.418 86.9795 109.174 86.5761C108.93 86.167 108.626 85.8204 108.262 85.5363C107.899 85.2522 107.484 85.0391 107.018 84.8971C106.558 84.7494 106.06 84.6755 105.526 84.6755C104.578 84.6755 103.737 84.9141 103.004 85.3914C102.271 85.863 101.697 86.5562 101.282 87.4709C100.867 88.38 100.66 89.4908 100.66 90.8033C100.66 92.1386 100.867 93.2636 101.282 94.1783C101.703 95.0874 102.276 95.7749 103.004 96.2408C103.737 96.7011 104.575 96.9312 105.518 96.9312C106.041 96.9312 106.529 96.863 106.984 96.7266C107.444 96.5846 107.856 96.3772 108.22 96.1045C108.589 95.8317 108.899 95.4965 109.149 95.0988C109.404 94.7011 109.58 94.2465 109.677 93.7352L112.864 93.7522C112.745 94.5817 112.487 95.3602 112.089 96.0874C111.697 96.8147 111.183 97.4567 110.546 98.0136C109.91 98.5647 109.166 98.9965 108.313 99.309C107.461 99.6158 106.515 99.7692 105.475 99.7692C103.941 99.7692 102.572 99.4141 101.367 98.7039C100.163 97.9937 99.2139 96.9681 98.5207 95.6272C97.8275 94.2863 97.4809 92.6783 97.4809 90.8033C97.4809 88.9227 97.8304 87.3147 98.5292 85.9795C99.2281 84.6386 100.18 83.613 101.384 82.9028C102.589 82.1925 103.953 81.8374 105.475 81.8374C106.447 81.8374 107.35 81.9738 108.185 82.2465C109.021 82.5192 109.765 82.9198 110.418 83.4482C111.072 83.9709 111.609 84.613 112.029 85.3744C112.455 86.13 112.734 86.9937 112.864 87.9653Z" fill="#72A8BE"/>
<path d="M119.669 91.8602V99.5306H116.584V82.0761H119.601V88.6641H119.754C120.061 87.9255 120.535 87.3431 121.177 86.917C121.825 86.4852 122.649 86.2692 123.649 86.2692C124.558 86.2692 125.351 86.4596 126.027 86.8403C126.703 87.221 127.226 87.7778 127.595 88.5107C127.97 89.2437 128.158 90.1386 128.158 91.1954V99.5306H125.072V91.6727C125.072 90.792 124.845 90.1073 124.391 89.6187C123.942 89.1244 123.311 88.8772 122.498 88.8772C121.953 88.8772 121.464 88.9965 121.033 89.2352C120.606 89.4681 120.271 89.8062 120.027 90.2494C119.788 90.6925 119.669 91.2295 119.669 91.8602Z" fill="#72A8BE"/>
<path d="M132.262 99.5306V86.4397H135.254V88.6215H135.39C135.629 87.8658 136.038 87.2835 136.618 86.8744C137.203 86.4596 137.87 86.2522 138.62 86.2522C138.791 86.2522 138.981 86.2607 139.191 86.2778C139.407 86.2891 139.586 86.309 139.728 86.3374V89.1755C139.598 89.13 139.39 89.0903 139.106 89.0562C138.828 89.0164 138.558 88.9965 138.297 88.9965C137.734 88.9965 137.228 89.1187 136.779 89.363C136.336 89.6016 135.987 89.934 135.731 90.3602C135.476 90.7863 135.348 91.2778 135.348 91.8346V99.5306H132.262Z" fill="#72A8BE"/>
<path d="M146.271 99.7948C145.441 99.7948 144.694 99.6471 144.029 99.3516C143.37 99.0505 142.847 98.6073 142.461 98.0221C142.08 97.4369 141.89 96.7153 141.89 95.8573C141.89 95.1187 142.026 94.5079 142.299 94.0249C142.572 93.542 142.944 93.1556 143.416 92.8658C143.887 92.5761 144.418 92.3573 145.009 92.2096C145.606 92.0562 146.222 91.9454 146.859 91.8772C147.626 91.7977 148.248 91.7266 148.725 91.6641C149.203 91.5959 149.549 91.4937 149.765 91.3573C149.987 91.2153 150.097 90.9965 150.097 90.7011V90.6499C150.097 90.0079 149.907 89.5107 149.526 89.1584C149.146 88.8062 148.597 88.63 147.882 88.63C147.126 88.63 146.526 88.7948 146.083 89.1244C145.646 89.4539 145.35 89.8431 145.197 90.292L142.316 89.8829C142.543 89.0874 142.918 88.4227 143.441 87.8886C143.964 87.3488 144.603 86.9454 145.359 86.6783C146.114 86.4056 146.95 86.2692 147.864 86.2692C148.495 86.2692 149.123 86.3431 149.748 86.4908C150.373 86.6386 150.944 86.8829 151.461 87.2238C151.978 87.559 152.393 88.0164 152.705 88.5959C153.024 89.1755 153.183 89.8999 153.183 90.7692V99.5306H150.217V97.7323H150.114C149.927 98.096 149.663 98.4369 149.322 98.755C148.987 99.0675 148.563 99.3204 148.052 99.5136C147.546 99.7011 146.953 99.7948 146.271 99.7948ZM147.072 97.5278C147.691 97.5278 148.228 97.4056 148.683 97.1613C149.137 96.9113 149.487 96.5817 149.731 96.1727C149.981 95.7636 150.106 95.3175 150.106 94.8346V93.292C150.009 93.3715 149.845 93.4454 149.612 93.5136C149.384 93.5817 149.129 93.6414 148.845 93.6925C148.561 93.7437 148.279 93.7891 148.001 93.8289C147.722 93.8687 147.481 93.9028 147.276 93.9312C146.816 93.9937 146.404 94.096 146.041 94.238C145.677 94.38 145.39 94.5789 145.18 94.8346C144.97 95.0846 144.864 95.4084 144.864 95.8062C144.864 96.3744 145.072 96.8033 145.487 97.0931C145.901 97.3829 146.43 97.5278 147.072 97.5278Z" fill="#72A8BE"/>
<path d="M167.592 89.8999L164.779 90.2067C164.699 89.9227 164.56 89.6556 164.361 89.4056C164.168 89.1556 163.907 88.9539 163.577 88.8005C163.248 88.6471 162.844 88.5704 162.367 88.5704C161.725 88.5704 161.185 88.7096 160.748 88.988C160.316 89.2664 160.103 89.6272 160.109 90.0704C160.103 90.4511 160.242 90.7607 160.526 90.9994C160.816 91.238 161.293 91.434 161.958 91.5874L164.191 92.0647C165.43 92.3317 166.35 92.755 166.952 93.3346C167.56 93.9141 167.867 94.6727 167.873 95.6102C167.867 96.434 167.626 97.1613 167.148 97.792C166.677 98.417 166.021 98.9056 165.18 99.2579C164.339 99.6102 163.373 99.7863 162.282 99.7863C160.68 99.7863 159.39 99.4511 158.413 98.7806C157.435 98.1045 156.853 97.1641 156.665 95.9596L159.674 95.6698C159.81 96.2607 160.1 96.7067 160.543 97.0079C160.986 97.309 161.563 97.4596 162.273 97.4596C163.006 97.4596 163.594 97.309 164.038 97.0079C164.486 96.7067 164.711 96.3346 164.711 95.8914C164.711 95.5164 164.566 95.2067 164.276 94.9624C163.992 94.7181 163.549 94.5306 162.947 94.3999L160.714 93.9312C159.458 93.6698 158.529 93.2295 157.927 92.6102C157.324 91.9852 157.026 91.1954 157.032 90.2408C157.026 89.434 157.245 88.7352 157.688 88.1442C158.137 87.5477 158.759 87.0874 159.555 86.7636C160.356 86.434 161.279 86.2692 162.324 86.2692C163.859 86.2692 165.066 86.596 165.947 87.2494C166.833 87.9028 167.381 88.7863 167.592 89.8999Z" fill="#72A8BE"/>
<path d="M177.914 86.4397V88.8261H170.388V86.4397H177.914ZM172.246 83.3033H175.331V95.5931C175.331 96.0079 175.394 96.3261 175.519 96.5477C175.65 96.7636 175.82 96.9113 176.03 96.9908C176.24 97.0704 176.473 97.1102 176.729 97.1102C176.922 97.1102 177.098 97.096 177.258 97.0675C177.422 97.0391 177.547 97.0136 177.633 96.9908L178.152 99.4028C177.988 99.4596 177.752 99.5221 177.445 99.5903C177.144 99.6585 176.775 99.6982 176.337 99.7096C175.564 99.7323 174.868 99.6158 174.249 99.3602C173.63 99.0988 173.138 98.6954 172.775 98.1499C172.417 97.6045 172.24 96.9227 172.246 96.1045V83.3033Z" fill="#72A8BE"/>
<path d="M185.221 99.7948C184.392 99.7948 183.644 99.6471 182.98 99.3516C182.32 99.0505 181.798 98.6073 181.411 98.0221C181.031 97.4369 180.84 96.7153 180.84 95.8573C180.84 95.1187 180.977 94.5079 181.249 94.0249C181.522 93.542 181.894 93.1556 182.366 92.8658C182.838 92.5761 183.369 92.3573 183.96 92.2096C184.556 92.0562 185.173 91.9454 185.809 91.8772C186.576 91.7977 187.198 91.7266 187.676 91.6641C188.153 91.5959 188.499 91.4937 188.715 91.3573C188.937 91.2153 189.048 90.9965 189.048 90.7011V90.6499C189.048 90.0079 188.857 89.5107 188.477 89.1584C188.096 88.8062 187.548 88.63 186.832 88.63C186.076 88.63 185.477 88.7948 185.034 89.1244C184.596 89.4539 184.301 89.8431 184.147 90.292L181.267 89.8829C181.494 89.0874 181.869 88.4227 182.392 87.8886C182.914 87.3488 183.553 86.9454 184.309 86.6783C185.065 86.4056 185.9 86.2692 186.815 86.2692C187.445 86.2692 188.073 86.3431 188.698 86.4908C189.323 86.6386 189.894 86.8829 190.411 87.2238C190.928 87.559 191.343 88.0164 191.656 88.5959C191.974 89.1755 192.133 89.8999 192.133 90.7692V99.5306H189.167V97.7323H189.065C188.877 98.096 188.613 98.4369 188.272 98.755C187.937 99.0675 187.514 99.3204 187.002 99.5136C186.497 99.7011 185.903 99.7948 185.221 99.7948ZM186.022 97.5278C186.642 97.5278 187.178 97.4056 187.633 97.1613C188.088 96.9113 188.437 96.5817 188.681 96.1727C188.931 95.7636 189.056 95.3175 189.056 94.8346V93.292C188.96 93.3715 188.795 93.4454 188.562 93.5136C188.335 93.5817 188.079 93.6414 187.795 93.6925C187.511 93.7437 187.23 93.7891 186.951 93.8289C186.673 93.8687 186.431 93.9028 186.227 93.9312C185.767 93.9937 185.355 94.096 184.991 94.238C184.627 94.38 184.34 94.5789 184.13 94.8346C183.92 95.0846 183.815 95.4084 183.815 95.8062C183.815 96.3744 184.022 96.8033 184.437 97.0931C184.852 97.3829 185.38 97.5278 186.022 97.5278Z" fill="#72A8BE"/>
<path d="M207.42 86.4397L202.758 99.5306H199.349L194.687 86.4397H197.977L200.985 96.1641H201.121L204.138 86.4397H207.42Z" fill="#72A8BE"/>
<path d="M213.907 99.7948C213.077 99.7948 212.33 99.6471 211.665 99.3516C211.006 99.0505 210.483 98.6073 210.097 98.0221C209.716 97.4369 209.526 96.7153 209.526 95.8573C209.526 95.1187 209.662 94.5079 209.935 94.0249C210.208 93.542 210.58 93.1556 211.052 92.8658C211.523 92.5761 212.054 92.3573 212.645 92.2096C213.242 92.0562 213.858 91.9454 214.495 91.8772C215.262 91.7977 215.884 91.7266 216.361 91.6641C216.838 91.5959 217.185 91.4937 217.401 91.3573C217.623 91.2153 217.733 90.9965 217.733 90.7011V90.6499C217.733 90.0079 217.543 89.5107 217.162 89.1584C216.782 88.8062 216.233 88.63 215.517 88.63C214.762 88.63 214.162 88.7948 213.719 89.1244C213.282 89.4539 212.986 89.8431 212.833 90.292L209.952 89.8829C210.179 89.0874 210.554 88.4227 211.077 87.8886C211.6 87.3488 212.239 86.9454 212.995 86.6783C213.75 86.4056 214.586 86.2692 215.5 86.2692C216.131 86.2692 216.759 86.3431 217.384 86.4908C218.009 86.6386 218.58 86.8829 219.097 87.2238C219.614 87.559 220.029 88.0164 220.341 88.5959C220.66 89.1755 220.819 89.8999 220.819 90.7692V99.5306H217.853V97.7323H217.75C217.563 98.096 217.299 98.4369 216.958 98.755C216.623 99.0675 216.199 99.3204 215.688 99.5136C215.182 99.7011 214.588 99.7948 213.907 99.7948ZM214.708 97.5278C215.327 97.5278 215.864 97.4056 216.319 97.1613C216.773 96.9113 217.123 96.5817 217.367 96.1727C217.617 95.7636 217.742 95.3175 217.742 94.8346V93.292C217.645 93.3715 217.481 93.4454 217.248 93.5136C217.02 93.5817 216.765 93.6414 216.481 93.6925C216.196 93.7437 215.915 93.7891 215.637 93.8289C215.358 93.8687 215.117 93.9028 214.912 93.9312C214.452 93.9937 214.04 94.096 213.677 94.238C213.313 94.38 213.026 94.5789 212.816 94.8346C212.606 95.0846 212.5 95.4084 212.5 95.8062C212.5 96.3744 212.708 96.8033 213.123 97.0931C213.537 97.3829 214.066 97.5278 214.708 97.5278Z" fill="#72A8BE"/>
<path d="M50.6329 67.3469L27.3418 59.1837L83.5443 30.6122L107.342 42.3469L50.6329 67.3469Z" fill="black"/>
<path d="M159.494 25.5102L116.962 44.3877L152.405 44.8979L159.494 25.5102Z" fill="#2961B4"/>
<path d="M170.127 0L161.519 20.4082L118.481 39.2857L170.127 0Z" fill="#2961B4"/>
<path d="M107.848 47.9592L46.076 92.8571L54.1772 69.898L107.848 47.9592Z" fill="#2961B4"/>
<path d="M75.443 30.6122L20.7595 56.6327L0 46.4286L75.443 30.6122Z" fill="#2961B4"/>
</svg>
